<?xml version="1.0" standalone="no"?>
<!DOCTYPE svg PUBLIC "-//W3C//DTD SVG 20010904//EN"
 "http://www.w3.org/TR/2001/REC-SVG-20010904/DTD/svg10.dtd">
<svg version="1.0" xmlns="http://www.w3.org/2000/svg"
 width="256.000000pt" height="256.000000pt" viewBox="0 0 256.000000 256.000000"
 preserveAspectRatio="xMidYMid meet">

<g transform="translate(0.000000,256.000000) scale(0.100000,-0.100000)"
fill="#000000" stroke="none">
<path d="M0 1280 l0 -1280 1280 0 1280 0 0 1280 0 1280 -1280 0 -1280 0 0
-1280z m1480 1145 c7 -8 10 -22 6 -30 -3 -9 0 -15 9 -15 7 0 20 -7 29 -15 17
-17 19 -15 35 38 9 25 18 37 31 37 29 0 30 -10 11 -91 -15 -62 -15 -77 -4 -87
20 -19 16 -99 -12 -266 -28 -165 -25 -184 28 -140 38 32 80 33 75 2 -2 -18 4
-24 38 -32 85 -22 95 -61 27 -111 -125 -91 -179 -124 -286 -172 -134 -61 -186
-70 -201 -36 -6 12 -20 26 -32 31 -28 14 -82 97 -90 141 -4 20 -17 50 -29 66
-12 17 -32 56 -44 88 -19 54 -20 60 -6 88 21 39 46 47 134 45 l73 -2 -6 28
c-14 73 -38 298 -33 312 7 18 42 22 52 6 5 -7 28 -165 36 -235 0 -5 10 42 21
105 20 117 29 142 74 218 27 44 44 52 64 27z m-792 -746 c33 -11 46 -32 37
-58 -10 -31 122 -144 265 -227 96 -56 170 -121 170 -150 0 -21 -40 -64 -75
-82 -11 -5 -72 -27 -135 -48 -102 -33 -122 -44 -178 -93 -110 -99 -142 -121
-173 -121 -48 0 -61 32 -50 121 5 41 12 95 15 120 l5 46 -45 -10 c-45 -10 -77
-8 -238 21 -50 9 -79 33 -70 57 3 7 1 22 -5 33 -8 15 -6 34 9 78 11 31 20 68
20 81 0 34 51 83 87 83 15 0 55 -7 88 -16 33 -8 90 -18 127 -22 l67 -8 11 63
c7 35 9 75 6 89 -6 24 7 54 24 54 4 0 21 -5 38 -11z m1296 -30 c13 -7 30 -26
36 -43 6 -17 17 -40 22 -51 20 -35 23 -70 12 -140 l-6 -41 114 -18 c157 -26
223 -54 168 -71 -26 -8 -26 -25 1 -25 24 0 59 -17 59 -29 0 -5 -17 -12 -37
-16 -50 -9 -56 -14 -42 -31 16 -19 -8 -98 -39 -127 -21 -20 -36 -22 -148 -25
-123 -4 -124 -4 -124 -27 0 -13 -4 -27 -10 -30 -16 -10 -12 -65 5 -71 18 -7
20 -24 2 -24 -7 0 -17 -14 -22 -32 -20 -64 -80 -63 -80 2 0 23 -6 35 -20 40
-27 11 -85 66 -86 82 0 7 -24 32 -54 56 -54 43 -145 157 -145 184 0 7 -9 21
-20 31 -26 22 -25 25 10 78 50 77 337 337 372 339 4 0 18 -5 32 -11z m-581
-585 c24 -24 84 -125 180 -304 19 -36 51 -94 71 -130 39 -71 43 -92 22 -109
-20 -17 -38 -6 -71 44 -23 34 -36 45 -57 45 -33 0 -34 -1 -52 -172 -9 -79 -19
-135 -29 -149 l-16 -22 -12 26 -12 26 -21 -42 c-16 -32 -28 -43 -49 -45 -23
-3 -28 1 -33 27 -4 20 -15 33 -35 41 -33 14 -39 52 -14 86 20 27 19 40 -3 21
-10 -10 -24 -17 -30 -17 -7 0 -12 -16 -12 -41 0 -46 -12 -48 -44 -5 -19 25
-21 42 -21 160 l0 132 -70 -8 c-44 -5 -79 -14 -97 -28 -15 -11 -35 -20 -45
-20 -21 0 -73 52 -73 72 1 21 392 406 430 422 49 21 64 20 93 -10z"/>
<path d="M1175 1830 c13 -15 22 -17 29 -10 12 12 -8 30 -33 30 -11 0 -10 -5 4
-20z"/>
<path d="M1530 1688 l-55 -50 60 32 c33 18 71 41 84 51 l24 19 -29 0 c-21 -1
-45 -16 -84 -52z"/>
<path d="M1215 1668 c4 -13 14 -33 22 -46 24 -39 65 -44 45 -5 -5 10 -15 30
-23 46 -16 34 -54 39 -44 5z"/>
<path d="M708 1493 c7 -3 16 -2 19 1 4 3 -2 6 -13 5 -11 0 -14 -3 -6 -6z"/>
<path d="M970 1317 c0 -2 18 -17 40 -32 26 -18 37 -31 29 -35 -23 -15 -5 -29
19 -16 23 12 23 13 -20 42 -59 40 -68 46 -68 41z"/>
<path d="M338 1253 c6 -2 18 -2 25 0 6 3 1 5 -13 5 -14 0 -19 -2 -12 -5z"/>
<path d="M391 1246 c2 -2 21 -6 42 -10 27 -5 37 -4 32 3 -3 6 -22 11 -42 11
-20 0 -34 -2 -32 -4z"/>
<path d="M567 1244 c-3 -4 -21 -10 -39 -14 l-33 -8 37 -1 c20 -1 40 4 43 10 8
12 1 22 -8 13z"/>
<path d="M648 1065 c-5 -22 -3 -24 11 -13 9 7 17 13 19 14 1 1 -4 6 -12 13
-11 9 -15 7 -18 -14z"/>
<path d="M1865 1479 c-36 -34 -64 -64 -61 -66 2 -2 33 8 70 23 66 26 66 26 66
65 0 21 -2 39 -5 39 -2 0 -34 -28 -70 -61z"/>
<path d="M1660 1251 c0 -6 4 -13 10 -16 6 -3 7 1 4 9 -7 18 -14 21 -14 7z"/>
<path d="M1730 1142 c0 -5 9 -17 20 -27 22 -20 26 -9 6 18 -14 18 -26 22 -26
9z"/>
<path d="M1866 1083 c9 -38 11 -39 16 -3 3 21 0 30 -9 30 -10 0 -11 -8 -7 -27z"/>
<path d="M1356 958 c-14 -20 -14 -23 4 -40 11 -10 20 -23 20 -28 0 -6 11 -10
25 -10 14 0 25 3 25 7 0 8 -50 93 -55 93 -2 0 -11 -10 -19 -22z"/>
<path d="M1449 779 c-7 -15 -8 -19 0 -15 6 4 20 2 31 -4 19 -10 19 -9 8 15
-14 31 -24 32 -39 4z"/>
<path d="M1250 778 c0 -7 -3 -23 -6 -35 -6 -21 -3 -23 33 -23 33 0 42 4 51 25
11 24 10 25 -18 25 -16 0 -32 5 -35 10 -9 14 -25 12 -25 -2z"/>
<path d="M1050 734 l-35 -36 40 6 c22 3 61 8 88 12 31 4 47 11 47 20 0 11 -4
12 -19 4 -33 -17 -71 -12 -79 10 -7 19 -10 18 -42 -16z"/>
<path d="M1227 603 c-4 -21 -7 -54 -7 -73 l0 -35 41 63 c23 35 39 65 37 67 -2
3 -18 8 -35 11 -29 6 -30 4 -36 -33z"/>
<path d="M1393 606 c28 -26 28 -27 12 -52 -16 -25 -16 -27 3 -44 19 -18 20
-17 30 43 5 34 9 63 8 63 0 1 -19 5 -41 9 l-40 7 28 -26z"/>
<path d="M1408 431 c-16 -23 -16 -25 0 -37 14 -11 17 -10 20 7 2 10 2 27 0 37
-3 14 -6 13 -20 -7z"/>
</g>
</svg>
